<svg width="96" height="96" viewBox="0 0 96 96" fill="none" xmlns="http://www.w3.org/2000/svg">
<rect width="96" height="96" rx="48" fill="white"/>
<g clip-path="url(#clip0_379_9279)">
<path d="M36.6045 51.8558C36.9673 51.6489 37.2684 51.3444 37.2684 50.8642C37.2684 50.3005 36.7979 49.926 36.1134 49.9863C35.4184 50.0476 34.9584 50.5255 34.9584 51.0998C34.9584 51.2496 34.9862 51.3938 35.0417 51.5375C35.0698 51.6103 35.0356 51.6933 34.9653 51.7268C34.4758 51.9589 34.0278 52.3292 34.0278 52.9523C34.0278 53.5755 34.5138 53.9528 35.3814 53.8762C35.7233 53.8459 36.0697 53.729 36.3838 53.5426C36.4531 53.5014 36.5415 53.5174 36.588 53.5835L36.6257 53.6368C36.6764 53.7086 36.7764 53.7227 36.8448 53.6674L37.3447 53.2649C37.4093 53.2128 37.4211 53.118 37.371 53.0516L37.3014 52.959C37.2577 52.9013 37.2612 52.8208 37.3077 52.7653C37.4078 52.6468 37.5002 52.5249 37.5879 52.3934C37.637 52.3199 37.617 52.2203 37.542 52.1741L37.1047 51.9053C37.0373 51.8638 36.9499 51.882 36.9027 51.9458C36.8682 51.9927 36.8337 52.0381 36.7995 52.0828C36.7381 52.1626 36.6191 52.1622 36.5579 52.0824C36.5013 52.0084 36.5231 51.9017 36.6039 51.8558H36.6045ZM35.7905 52.9412C35.704 52.9795 35.6233 53.0009 35.5489 53.0076C35.3241 53.0274 35.1778 52.9191 35.1778 52.7401C35.1778 52.561 35.2604 52.4358 35.3959 52.3298C35.4621 52.2781 35.5587 52.2966 35.6081 52.365L35.855 52.7091C35.9124 52.7892 35.8801 52.9016 35.7905 52.9415V52.9412ZM36.1501 51.308C36.0643 51.368 35.9409 51.3243 35.9165 51.2218C35.9051 51.1739 35.8991 51.1251 35.8991 51.0746C35.8991 50.8955 36.0035 50.7544 36.1498 50.7417C36.2752 50.7305 36.3692 50.8068 36.3692 50.9648C36.3692 51.1043 36.2844 51.2141 36.1501 51.3083V51.308Z" fill="#AF1F31"/>
<path d="M38.3098 57.5618L41.5976 57.2716C43.6872 57.0874 45.2482 56.3643 46.3317 55.1761C47.2993 54.1153 47.8153 52.8211 47.8153 51.4555C47.8153 50.35 47.5057 49.4928 46.8351 48.8754C46.1515 48.2465 45.055 47.8618 43.3007 48.0167L40.4156 48.2711C40.2272 48.2877 40.0695 48.4218 40.0214 48.6063L37.8377 56.997C37.7592 57.2994 38.0011 57.5886 38.3098 57.5614V57.5618ZM41.5383 54.1172L42.3438 51.006C42.3837 50.8515 42.5158 50.7391 42.6734 50.7254L42.9137 50.7043C43.6363 50.6408 44.0878 50.7697 44.3715 51.0309C44.6035 51.2448 44.7457 51.5573 44.7457 52.0515C44.7457 52.6108 44.475 53.2457 44.1008 53.6559C43.6363 54.1654 42.8495 54.5077 41.9335 54.5884C41.6758 54.6111 41.4734 54.3697 41.5387 54.1172H41.5383Z" fill="#AF1F31"/>
<path d="M55.1021 52.932C56.6399 52.1946 57.2824 50.9831 57.2824 49.658C57.2824 48.9426 57.0759 48.2846 56.5728 47.8214C55.9665 47.2637 54.9087 46.9927 53.2448 47.1395L49.9855 47.4272C49.8282 47.4412 49.6962 47.5533 49.6563 47.7075L47.433 56.2508C47.3671 56.5033 47.5697 56.7453 47.8278 56.7226L50.0546 56.5263C50.2119 56.5126 50.3436 56.4005 50.3839 56.2466L50.9462 54.0969C50.9864 53.9431 51.1181 53.831 51.2755 53.8173L51.4854 53.7988C51.6494 53.7844 51.8036 53.8795 51.865 54.0334L52.6638 56.028C52.7256 56.1818 52.8795 56.277 53.0435 56.2626L55.5014 56.0458C55.7556 56.0235 55.9136 55.7566 55.8123 55.5201L54.9144 53.4246C54.8336 53.2366 54.9182 53.0205 55.1018 52.9327L55.1021 52.932ZM52.6771 51.5207L52.111 51.5705C51.8527 51.5932 51.6503 51.3509 51.7165 51.0984L51.9907 50.05C52.0309 49.8961 52.1626 49.7841 52.32 49.7703L53.1286 49.6988C53.5542 49.6612 53.8512 49.726 54.0187 49.8805C54.1475 49.9992 54.2121 50.1624 54.2121 50.3447C54.2121 50.917 53.6834 51.432 52.6771 51.5207Z" fill="#AF1F31"/>
<path d="M58.3067 55.2923C58.2417 55.5448 58.4441 55.7858 58.7015 55.7632L60.9292 55.5665C61.0866 55.5528 61.2186 55.4404 61.2585 55.2865L61.9969 52.4527C62.0102 52.4016 62.0339 52.3537 62.0668 52.3126L66.604 46.6018C66.8098 46.3426 66.6075 45.9611 66.2791 45.9898L63.7475 46.2133C63.6398 46.2229 63.5413 46.2787 63.4774 46.3671L61.7021 48.8252C61.515 49.0841 61.1132 49.0053 61.0362 48.6944L60.5721 46.8134C60.5277 46.6334 60.3596 46.5124 60.1763 46.5287L57.7906 46.7391C57.5506 46.7601 57.3929 47.0008 57.4673 47.2316L59.0551 52.1513C59.0773 52.22 59.0795 52.2934 59.0615 52.363L58.3063 55.2923H58.3067Z" fill="#AF1F31"/>
<path d="M31.3114 42.3809C29.736 44.9912 29.0835 47.8662 29.6366 50.707C31.1523 58.4909 41.1361 63.0679 51.9364 60.9307C61.4317 59.0516 68.3959 52.6081 68.911 45.7891C69.9467 53.3763 61.9629 61.1824 50.7353 63.4043C39.2369 65.6795 28.6917 61.237 27.1815 53.4814C26.4293 49.6178 28.0626 45.661 31.3114 42.3809ZM36.3896 42.1865C36.4783 42.179 36.5485 42.2623 36.5263 42.3496L35.0702 47.9658C35.0563 48.0191 35.0104 48.0577 34.956 48.0625L32.8593 48.248C32.7704 48.2557 32.7002 48.1724 32.7226 48.085L34.1776 42.4688C34.1916 42.4155 34.2375 42.3769 34.2919 42.3721L36.3896 42.1865ZM50.7138 39.3018C51.0725 39.2702 51.3195 39.6573 51.1425 39.9736L47.3095 46.8281C47.237 46.9577 47.106 47.0435 46.9589 47.0566L45.5097 47.1846C45.2633 47.2063 45.0459 47.0221 45.0243 46.7734L44.7851 43.9941C44.774 43.8676 44.609 43.8296 44.5448 43.9385L42.6112 47.25C42.5378 47.3758 42.4076 47.4579 42.2636 47.4707L40.8231 47.5977V47.5986C40.5716 47.6206 40.3513 47.429 40.3368 47.1748L39.9706 40.6895C39.957 40.4456 40.1375 40.2353 40.3788 40.2139L41.9784 40.0723C42.2351 40.0497 42.4578 40.2509 42.4647 40.5107L42.5341 43.0938C42.5376 43.2259 42.7114 43.2699 42.7763 43.1553L44.5507 40.0195C44.6235 39.8911 44.7542 39.8067 44.9003 39.7939L46.3222 39.6689C46.5715 39.647 46.7902 39.835 46.8075 40.0869L46.9862 42.7139C46.9951 42.8444 47.168 42.8822 47.2294 42.7666L48.8759 39.6689C48.9471 39.5347 49.0811 39.4461 49.2314 39.4326L50.7138 39.3018ZM53.2831 40.6123C55.1736 40.4457 56.0506 41.0943 56.0507 42.2422C56.0507 42.4845 56.0193 42.761 55.9462 43.0518L55.1347 46.1953C55.1208 46.2485 55.0748 46.2871 55.0204 46.292L52.9237 46.4775C52.8342 46.4851 52.764 46.4009 52.787 46.3135C52.8193 46.1912 52.6772 46.0996 52.58 46.1797C52.1932 46.4975 51.8174 46.7014 51.2987 46.7471C50.4214 46.8246 49.7734 46.3024 49.7733 45.3125C49.7733 44.1017 50.7135 43.2287 52.3222 43.0869C52.7504 43.0493 53.1889 43.0734 53.6171 43.1621L53.6386 43.0977C53.6595 43.0224 53.6796 42.9043 53.6796 42.8096C53.6796 42.4514 53.3981 42.2755 52.8026 42.3281C52.3402 42.369 51.7793 42.5015 51.3886 42.6572C51.314 42.6872 51.2314 42.6411 51.2157 42.5615L50.954 41.2334C50.9418 41.1707 50.9757 41.108 51.0351 41.0859C51.6467 40.8603 52.5024 40.6813 53.2831 40.6123ZM60.6933 37.0703C61.7098 37.0703 62.5368 37.9045 62.537 38.9297C62.537 39.5883 62.1951 40.1667 61.6815 40.4971C61.7759 40.648 61.7811 40.8502 61.6679 41.0088C61.5049 41.237 61.3069 41.5129 61.1571 41.7227C61.0324 41.8973 60.8033 41.9654 60.6083 41.8779C60.1818 41.687 59.6368 41.547 59.1942 41.5859C58.9334 41.6089 58.8183 41.6927 58.8183 41.8086C58.8183 41.9663 58.9437 42.0191 59.6435 42.21C60.552 42.4561 61.2624 42.7933 61.2626 43.8037C61.2626 44.7617 60.5937 45.9379 58.6718 46.1074C57.6415 46.1984 56.763 46.009 56.0946 45.6885C55.8368 45.5646 55.7508 45.2375 55.9179 45.0039L56.4218 44.2988C56.5518 44.1167 56.7949 44.0521 56.9931 44.1543C57.5054 44.4196 58.1888 44.602 58.7138 44.5557C58.9539 44.5346 59.0477 44.4315 59.0478 44.3262C59.0478 44.1365 58.8702 44.0572 58.1601 43.8564C57.2413 43.6007 56.6044 43.2357 56.6044 42.3301C56.6045 41.1969 57.5427 40.208 59.2157 40.0381C58.9866 39.7285 58.8495 39.3449 58.8495 38.9297C58.8497 37.9045 59.6768 37.0704 60.6933 37.0703ZM64.9843 37.7266C65.2931 37.6998 65.5351 37.9898 65.456 38.292L65.0399 39.8838C65.0072 40.0093 65.155 40.0993 65.2509 40.0127C65.6137 39.6836 66.0866 39.4301 66.6103 39.3838C67.6545 39.2915 68.2392 39.9251 68.2392 40.999C68.2391 41.2939 68.1974 41.6237 68.1034 41.9795L67.2909 45.123C67.277 45.1764 67.2311 45.2149 67.1767 45.2197L65.08 45.4053C64.9909 45.4132 64.9208 45.3295 64.9433 45.2422L65.6591 42.4902C65.7008 42.3391 65.7225 42.1686 65.7226 42.0527C65.7226 41.7475 65.5654 41.5615 65.2206 41.5918C64.7511 41.6334 64.5 41.9706 64.3329 42.6064L63.5937 45.4492C63.5797 45.5025 63.5339 45.5421 63.4794 45.5469L61.3827 45.7314C61.2935 45.7393 61.2232 45.6558 61.246 45.5684L63.1669 38.1875C63.215 38.003 63.373 37.8691 63.5614 37.8525L64.9843 37.7266ZM52.9911 44.0078C52.3959 44.0602 52.0614 44.374 52.0614 44.8691C52.0615 45.1637 52.2288 45.3063 52.4481 45.2871C52.8238 45.2536 53.2313 44.8281 53.3671 44.2793L53.3935 44.1729C53.4128 44.0963 53.3609 44.0195 53.2831 44.0107C53.1873 44.0002 53.096 43.9986 52.9911 44.0078ZM36.953 40.1992C37.0422 40.1912 37.1123 40.2749 37.0897 40.3623L36.7519 41.6572C36.7379 41.7103 36.6928 41.749 36.6386 41.7539L34.4579 41.9463C34.3686 41.9543 34.2984 41.8707 34.3212 41.7832L34.6591 40.4883C34.6731 40.4353 34.7182 40.3965 34.7724 40.3916L36.953 40.1992ZM54.1503 34.8145C55.325 34.8145 56.3263 35.5848 56.6806 36.6504C56.7343 36.6351 56.7914 36.626 56.8495 36.626C57.2037 36.626 57.4919 36.9163 57.4921 37.2734C57.4921 37.6307 57.2038 37.9209 56.8495 37.9209C56.8297 37.9209 56.8098 37.9202 56.7899 37.918C56.7504 38.1726 56.6759 38.416 56.5712 38.6416C57.1293 38.7367 57.5574 39.2276 57.5575 39.8184C57.5575 40.4776 57.0245 41.0137 56.372 41.0137C55.7733 41.0136 55.2773 40.5634 55.1991 39.9805C54.8763 40.119 54.5229 40.1972 54.1513 40.1973H54.1503C52.679 40.1971 51.4816 38.9903 51.4814 37.5068C51.4814 36.0232 52.6785 34.8147 54.1503 34.8145ZM56.372 38.7803C56.2662 38.7803 56.1627 38.7966 56.0663 38.8271H56.0644C55.7545 38.9246 55.5076 39.167 55.4003 39.4746C55.363 39.5824 55.3417 39.6975 55.3417 39.8184C55.3417 39.849 55.3431 39.8796 55.3466 39.9102C55.3922 40.4399 55.8339 40.8572 56.372 40.8574C56.9394 40.8574 57.4003 40.3907 57.4003 39.8184C57.4 39.2887 57.0059 38.8503 56.498 38.7881C56.4573 38.7821 56.4149 38.7803 56.372 38.7803ZM60.6933 37.3145C59.8101 37.3151 59.0917 38.0401 59.0917 38.9307C59.0918 39.3491 59.2521 39.7294 59.5116 40.0166L59.6278 40.1328C59.6671 40.1679 59.7075 40.2021 59.7499 40.2334C59.7521 40.235 59.7545 40.2367 59.7567 40.2383C59.7969 40.2679 59.8388 40.2945 59.8817 40.3203C59.8864 40.3231 59.8908 40.3263 59.8954 40.3291C59.9356 40.3524 59.978 40.3744 60.0204 40.3945C60.0282 40.3983 60.0361 40.4018 60.0439 40.4053C60.0834 40.4231 60.1239 40.4394 60.1649 40.4541C60.1759 40.4582 60.1869 40.462 60.1981 40.4658C60.237 40.4789 60.2772 40.4892 60.3173 40.499C60.3312 40.5025 60.345 40.5076 60.3593 40.5107C60.3992 40.5194 60.4405 40.5248 60.4814 40.5303C60.4961 40.5322 60.5105 40.5355 60.5253 40.5371C60.5806 40.5432 60.637 40.5459 60.6942 40.5459C60.7607 40.5459 60.826 40.5412 60.8905 40.5332C60.907 40.531 60.9233 40.5279 60.9394 40.5254C60.9914 40.5171 61.0425 40.5062 61.0927 40.4932C61.1044 40.4903 61.1164 40.4876 61.1278 40.4844C61.257 40.447 61.3801 40.3948 61.494 40.3281C61.9729 40.0485 62.2967 39.5274 62.2968 38.9307C62.2968 38.0397 61.577 37.3145 60.6933 37.3145ZM55.7187 39.4502C55.7577 39.4676 55.7757 39.5133 55.7587 39.5527C55.7226 39.637 55.704 39.7265 55.704 39.8184C55.704 39.8841 55.7143 39.9502 55.7333 40.0137C55.7457 40.0551 55.7226 40.0989 55.6815 40.1113C55.674 40.1138 55.6666 40.1143 55.6591 40.1143C55.6255 40.1142 55.595 40.0924 55.5849 40.0586C55.5615 39.9805 55.5497 39.8997 55.5497 39.8184C55.5497 39.7048 55.5715 39.5942 55.6161 39.4902C55.633 39.4505 55.6792 39.433 55.7187 39.4502ZM54.1513 35.166C52.8718 35.166 51.831 36.2168 51.831 37.5059C51.831 38.7949 52.8718 39.8438 54.1513 39.8438C54.5324 39.8437 54.894 39.7519 55.2108 39.585C55.3064 39.0998 55.6927 38.7196 56.1786 38.6396C56.3229 38.3798 56.4189 38.0912 56.455 37.7822C56.3049 37.6648 56.2079 37.4803 56.2079 37.2734C56.2079 37.1068 56.2711 36.9538 56.3749 36.8398C56.0906 35.8742 55.2011 35.1661 54.1513 35.166ZM53.1649 35.9258C53.2469 35.8742 53.3546 35.8992 53.4062 35.9814C53.4576 36.0638 53.4331 36.1726 53.3515 36.2246C52.911 36.5052 52.6475 36.9841 52.6474 37.5059C52.6474 38.287 53.2524 38.9499 54.0243 39.0156C54.1205 39.0236 54.1916 39.1091 54.1835 39.2061C54.1756 39.298 54.0996 39.3682 54.0097 39.3682C54.0047 39.3682 54 39.3675 53.995 39.3672C53.0433 39.2861 52.2978 38.4687 52.2978 37.5059C52.2978 36.8624 52.622 36.2715 53.1649 35.9258ZM56.372 38.9883C56.4147 38.9883 56.4501 39.0233 56.4501 39.0664C56.45 39.1094 56.4147 39.1445 56.372 39.1445C56.2081 39.1446 56.0507 39.2061 55.9276 39.3174C55.9128 39.3307 55.8941 39.3368 55.8759 39.3369C55.8547 39.3369 55.8335 39.3286 55.8183 39.3115C55.7898 39.2793 55.7922 39.2299 55.8241 39.2012C55.9378 39.0983 56.0755 39.0296 56.2226 39.002L56.372 38.9883ZM61.3065 37.7969C61.5905 37.9536 61.8039 38.2116 61.9071 38.5234C61.9283 38.5872 61.8942 38.6563 61.831 38.6777C61.8184 38.6822 61.8054 38.6836 61.7929 38.6836C61.7422 38.6836 61.6944 38.6517 61.6776 38.6006C61.5937 38.3469 61.4205 38.1378 61.1903 38.0107C61.1322 37.9785 61.1105 37.9037 61.1425 37.8447C61.1745 37.7858 61.248 37.7647 61.3065 37.7969ZM60.6942 37.6387C60.7593 37.6387 60.8271 37.6448 60.9022 37.6572C60.968 37.6684 61.0124 37.7306 61.0019 37.7969C60.9908 37.8632 60.9287 37.9086 60.8632 37.8975C60.8011 37.8872 60.7452 37.8818 60.6933 37.8818C60.4835 37.8819 60.2807 37.9465 60.1073 38.0664C60.0865 38.0807 60.0623 38.0879 60.039 38.0879L60.0399 38.0869C60.0013 38.0869 59.9628 38.0687 59.9394 38.0342C59.9018 37.979 59.9158 37.9032 59.9706 37.8652C60.1846 37.7168 60.4349 37.6387 60.6942 37.6387ZM56.8505 36.7109C56.8014 36.7109 56.7535 36.7164 56.7079 36.7305C56.5832 36.7621 56.476 36.8373 56.4013 36.9385C56.3326 37.0323 56.2919 37.1477 56.2919 37.2734C56.2919 37.4333 56.3588 37.5775 56.4647 37.6797C56.5533 37.7655 56.6704 37.8221 56.7997 37.834C56.8159 37.8349 56.834 37.8359 56.8505 37.8359C57.1581 37.8358 57.4081 37.5836 57.4081 37.2734C57.4081 36.9632 57.1581 36.7111 56.8505 36.7109ZM57.2528 37.084C57.2812 37.1452 57.2958 37.2088 57.2958 37.2734C57.2958 37.4611 57.1772 37.6308 57.0009 37.6953C56.9962 37.6969 56.991 37.6982 56.9862 37.6982C56.9693 37.6982 56.9535 37.687 56.9472 37.6699C56.9393 37.6479 56.9507 37.6232 56.9726 37.6152C57.1157 37.5628 57.2118 37.4252 57.2118 37.2734C57.2118 37.2213 57.2 37.1698 57.1767 37.1201C57.1668 37.0987 57.1763 37.0734 57.1972 37.0635C57.218 37.0537 57.243 37.0626 57.2528 37.084ZM59.3378 33.248C59.9912 33.2481 60.5223 33.7836 60.5224 34.4424C60.5224 35.1013 59.9913 35.6377 59.3378 35.6377C58.6843 35.6377 58.1522 35.1013 58.1522 34.4424C58.1523 33.7835 58.6843 33.248 59.3378 33.248ZM59.3378 33.4043C58.7698 33.4043 58.3076 33.8697 58.3075 34.4424C58.3075 35.0151 58.7698 35.4814 59.3378 35.4814C59.9058 35.4814 60.3681 35.0151 60.3681 34.4424C60.368 33.8698 59.9057 33.4043 59.3378 33.4043ZM58.8095 34.9766C58.8364 34.9428 58.8856 34.9374 58.9189 34.9648C59.0375 35.0621 59.1866 35.1162 59.3388 35.1162C59.3815 35.1162 59.4169 35.1512 59.4169 35.1943C59.4168 35.2266 59.3969 35.2548 59.369 35.2666L59.3388 35.2725C59.1507 35.2724 58.9665 35.2069 58.8202 35.0869C58.7867 35.0595 58.7826 35.0101 58.8095 34.9766ZM58.663 34.1172C58.7035 34.1315 58.724 34.1763 58.7099 34.2168C58.6839 34.2905 58.6708 34.3646 58.6708 34.4424C58.6708 34.5203 58.6843 34.5985 58.7118 34.6738C58.7262 34.7146 58.706 34.7594 58.6659 34.7744C58.6575 34.7776 58.6483 34.7793 58.6396 34.7793C58.6079 34.7793 58.5777 34.7591 58.5663 34.7275C58.5325 34.6349 58.5156 34.537 58.5155 34.4434C58.5155 34.3495 58.5324 34.2557 58.5644 34.165C58.5786 34.1242 58.6228 34.1026 58.663 34.1172ZM55.5155 32C55.741 32.0001 55.9245 32.1848 55.9247 32.4121C55.9247 32.6396 55.7412 32.8251 55.5155 32.8252C55.2898 32.8252 55.1064 32.6397 55.1064 32.4121C55.1066 32.1847 55.2899 32 55.5155 32ZM55.5155 32.0537C55.3193 32.0537 55.1592 32.2142 55.1591 32.4121C55.1591 32.61 55.3192 32.7715 55.5155 32.7715C55.7117 32.7713 55.871 32.6099 55.871 32.4121C55.8709 32.2143 55.7117 32.0538 55.5155 32.0537ZM55.5839 32.1338C55.7117 32.1651 55.8007 32.28 55.8007 32.4121C55.8006 32.4269 55.789 32.4392 55.7743 32.4395C55.7595 32.4395 55.7471 32.428 55.747 32.4131V32.4102C55.747 32.3056 55.6748 32.2122 55.5712 32.1865C55.557 32.183 55.5483 32.1686 55.5517 32.1543C55.5551 32.1399 55.5693 32.1303 55.5839 32.1338Z" fill="#2EAFE5"/>
</g>
<defs>
<clipPath id="clip0_379_9279">
<rect width="42" height="32" fill="white" transform="translate(27 32)"/>
</clipPath>
</defs>
</svg>
