<svg width="48" height="48" viewBox="0 0 48 48" fill="none" xmlns="http://www.w3.org/2000/svg">
<path d="M16.2 42.425C13.7667 41.375 11.65 39.95 9.85 38.15C8.05 36.35 6.625 34.2333 5.575 31.8C4.525 29.3667 4 26.7667 4 24C4 21.2333 4.525 18.6333 5.575 16.2C6.625 13.7667 8.05 11.65 9.85 9.85C11.65 8.05 13.7667 6.625 16.2 5.575C18.6333 4.525 21.2333 4 24 4C26.7667 4 29.3667 4.525 31.8 5.575C34.2333 6.625 36.35 8.05 38.15 9.85C39.95 11.65 41.375 13.7667 42.425 16.2C43.475 18.6333 44 21.2333 44 24C44 26.7667 43.475 29.3667 42.425 31.8C41.375 34.2333 39.95 36.35 38.15 38.15C36.35 39.95 34.2333 41.375 31.8 42.425C29.3667 43.475 26.7667 44 24 44C21.2333 44 18.6333 43.475 16.2 42.425ZM24 40C25.8 40 27.5333 39.7083 29.2 39.125C30.8667 38.5417 32.4 37.7 33.8 36.6L11.4 14.2C10.3 15.6 9.45833 17.1333 8.875 18.8C8.29167 20.4667 8 22.2 8 24C8 28.4667 9.55 32.25 12.65 35.35C15.75 38.45 19.5333 40 24 40ZM36.6 33.8C37.7 32.4 38.5417 30.8667 39.125 29.2C39.7083 27.5333 40 25.8 40 24C40 19.5333 38.45 15.75 35.35 12.65C32.25 9.55 28.4667 8 24 8C22.2 8 20.4667 8.29167 18.8 8.875C17.1333 9.45833 15.6 10.3 14.2 11.4L36.6 33.8Z" fill="#AF1F31"/>
</svg>
