<svg width="32" height="31" viewBox="0 0 32 31" fill="none" xmlns="http://www.w3.org/2000/svg">
<path d="M24.35 17.176H2C1.43333 17.176 0.958333 16.9843 0.575 16.601C0.191667 16.2177 0 15.7427 0 15.176C0 14.6093 0.191667 14.1343 0.575 13.751C0.958333 13.3677 1.43333 13.176 2 13.176H24.35L14.55 3.376C14.15 2.976 13.9583 2.50933 13.975 1.976C13.9917 1.44267 14.2 0.976 14.6 0.576C15 0.209333 15.4667 0.0176667 16 0.001C16.5333 -0.0156667 17 0.176 17.4 0.576L30.6 13.776C30.8 13.976 30.9417 14.1927 31.025 14.426C31.1083 14.6593 31.15 14.9093 31.15 15.176C31.15 15.4427 31.1083 15.6927 31.025 15.926C30.9417 16.1593 30.8 16.376 30.6 16.576L17.4 29.776C17.0333 30.1427 16.575 30.326 16.025 30.326C15.475 30.326 15 30.1427 14.6 29.776C14.2 29.376 14 28.901 14 28.351C14 27.801 14.2 27.326 14.6 26.926L24.35 17.176Z" fill="#212121"/>
</svg>
