<svg width="32" height="32" viewBox="0 0 32 32" fill="none" xmlns="http://www.w3.org/2000/svg">
<path d="M0 16C0 18.7719 0.705188 21.379 1.94544 23.6522L16 25.0435L30.0546 23.6522C31.2948 21.379 32 18.7719 32 16C32 13.2282 31.2948 10.621 30.0546 8.34786L16 6.95654L1.94544 8.34786C0.705188 10.621 0 13.2282 0 16H0Z" fill="#D80027"/>
<path d="M1.94531 8.34781H30.0544C27.3408 3.37431 22.0646 0 15.9999 0C9.93519 0 4.659 3.37431 1.94531 8.34781Z" fill="#0052B4"/>
<path d="M15.9999 32.0002C22.0646 32.0002 27.3408 28.6258 30.0544 23.6523H1.94531C4.659 28.6258 9.93519 32.0002 15.9999 32.0002Z" fill="#0052B4"/>
<path d="M21.5656 19.1309V17.044H20.1744V14.2613L18.7831 12.87L17.3918 14.2613V11.4787L16.0004 10.0874L14.6091 11.4787V14.2613L13.2178 12.87L11.8265 14.2613V17.044H10.4353V19.1309H9.04395V21.2178H22.9569V19.1309H21.5656Z" fill="#F0F0F0"/>
</svg>
