<svg width="32" height="32" viewBox="0 0 32 32" fill="none" xmlns="http://www.w3.org/2000/svg">
<path d="M16 32C24.8366 32 32 24.8366 32 16C32 7.16344 24.8366 0 16 0C7.16344 0 0 7.16344 0 16C0 24.8366 7.16344 32 16 32Z" fill="#D80027"/>
<path d="M8.75625 9.7373L10.1375 13.9873H14.6062L10.9937 16.6186L12.375 20.8686L8.75625 18.2436L5.1375 20.8686L6.525 16.6186L2.90625 13.9873H7.375L8.75625 9.7373Z" fill="#FFDA44"/>
<path d="M18.9694 24.7807L17.9132 23.4807L16.3507 24.0869L17.2569 22.6807L16.2007 21.3744L17.8194 21.8057L18.7319 20.3994L18.8194 22.0744L20.4444 22.5057L18.8757 23.1057L18.9694 24.7807Z" fill="#FFDA44"/>
<path d="M21.0694 20.9682L21.5694 19.3682L20.2007 18.3994L21.8757 18.3744L22.3694 16.7744L22.9132 18.3619L24.5882 18.3432L23.2444 19.3432L23.7819 20.9307L22.4132 19.9619L21.0694 20.9682Z" fill="#FFDA44"/>
<path d="M23.8993 11.7435L23.1618 13.2497L24.3618 14.4185L22.7056 14.181L21.9681 15.681L21.6806 14.031L20.0181 13.7935L21.5056 13.0122L21.2181 11.356L22.4181 12.5247L23.8993 11.7435Z" fill="#FFDA44"/>
<path d="M19.0119 7.18066L18.8869 8.84941L20.4432 9.48067L18.8119 9.88066L18.6932 11.5557L17.8119 10.1307L16.1807 10.5307L17.2619 9.24941L16.3744 7.83066L17.9307 8.46191L19.0119 7.18066Z" fill="#FFDA44"/>
</svg>
