<svg width="32" height="32" viewBox="0 0 32 32" fill="none" xmlns="http://www.w3.org/2000/svg">
<path d="M15.9999 31.9999C24.8365 31.9999 31.9999 24.8365 31.9999 15.9999C31.9999 7.16342 24.8365 0 15.9999 0C7.16341 0 0 7.16342 0 15.9999C0 24.8365 7.16341 31.9999 15.9999 31.9999Z" fill="#F0F0F0"/>
<path d="M15.3032 16.0001H31.9988C31.9988 14.556 31.8063 13.157 31.4476 11.8262H15.3032V16.0001Z" fill="#D80027"/>
<path d="M15.3032 7.65244H29.6504C28.671 6.05419 27.4187 4.64151 25.9586 3.47852H15.3032V7.65244Z" fill="#D80027"/>
<path d="M15.9997 32.0002C19.7653 32.0002 23.2263 30.6987 25.9594 28.522H6.04004C8.77315 30.6987 12.2342 32.0002 15.9997 32.0002Z" fill="#D80027"/>
<path d="M2.34747 24.3482H29.6506C30.4369 23.0652 31.0467 21.6627 31.4478 20.1743H0.550293C0.951354 21.6627 1.56116 23.0652 2.34747 24.3482Z" fill="#D80027"/>
<path d="M7.41147 2.49862H8.86952L7.51328 3.48393L8.03134 5.07823L6.67516 4.09292L5.31898 5.07823L5.76648 3.70093C4.57236 4.69561 3.52573 5.86098 2.66324 7.15948H3.13042L2.26712 7.78666C2.13262 8.01104 2.00362 8.23897 1.87999 8.47029L2.29224 9.73909L1.52312 9.18028C1.33193 9.58534 1.15706 9.99953 0.999871 10.4223L1.45406 11.8203H3.13042L1.77418 12.8056L2.29224 14.4L0.936059 13.4146L0.123687 14.0049C0.0423748 14.6585 0 15.3243 0 15.9999H15.9999C15.9999 7.16348 15.9999 6.12173 15.9999 0C12.8392 0 9.89277 0.916872 7.41147 2.49862ZM8.03134 14.4L6.67516 13.4146L5.31898 14.4L5.83704 12.8056L4.48079 11.8203H6.15716L6.67516 10.226L7.19316 11.8203H8.86952L7.51328 12.8056L8.03134 14.4ZM7.51328 8.14479L8.03134 9.73909L6.67516 8.75379L5.31898 9.73909L5.83704 8.14479L4.48079 7.15948H6.15716L6.67516 5.56517L7.19316 7.15948H8.86952L7.51328 8.14479ZM13.7704 14.4L12.4143 13.4146L11.0581 14.4L11.5761 12.8056L10.2199 11.8203H11.8963L12.4143 10.226L12.9323 11.8203H14.6086L13.2524 12.8056L13.7704 14.4ZM13.2524 8.14479L13.7704 9.73909L12.4143 8.75379L11.0581 9.73909L11.5761 8.14479L10.2199 7.15948H11.8963L12.4143 5.56517L12.9323 7.15948H14.6086L13.2524 8.14479ZM13.2524 3.48393L13.7704 5.07823L12.4143 4.09292L11.0581 5.07823L11.5761 3.48393L10.2199 2.49862H11.8963L12.4143 0.90431L12.9323 2.49862H14.6086L13.2524 3.48393Z" fill="#0052B4"/>
</svg>
